<?xml version="1.0" standalone="no"?>
<!DOCTYPE svg PUBLIC "-//W3C//DTD SVG 20010904//EN"
 "http://www.w3.org/TR/2001/REC-SVG-20010904/DTD/svg10.dtd">
<svg version="1.0" xmlns="http://www.w3.org/2000/svg"
 width="300.000000pt" height="300.000000pt" viewBox="0 0 300.000000 300.000000"
 preserveAspectRatio="xMidYMid meet">

<g transform="translate(0.000000,300.000000) scale(0.100000,-0.100000)"
fill="#000000" stroke="none">
<path d="M358 2900 c-93 -16 -147 -40 -178 -78 -53 -64 -47 -82 97 -287 231
-328 434 -654 534 -859 36 -72 59 -107 88 -129 l39 -30 -29 -41 c-26 -35 -30
-48 -28 -101 1 -38 -5 -75 -16 -100 -88 -200 -45 -382 132 -564 l81 -84 95
-241 95 -241 61 -17 c263 -72 579 -37 846 92 55 26 120 62 144 80 l44 32 -7
73 c-4 39 -18 118 -31 175 -23 95 -24 108 -14 191 26 204 -52 415 -201 540
-31 26 -50 50 -50 63 0 12 -8 38 -18 58 l-19 36 54 7 c54 7 55 7 78 57 13 28
31 80 41 116 17 60 17 65 1 77 -10 7 -17 26 -17 43 0 25 8 37 45 62 63 43 71
63 45 104 -11 19 -27 39 -35 46 -10 8 -15 32 -15 69 -1 130 -77 228 -219 282
-77 29 -195 29 -276 -2 -75 -28 -145 -96 -168 -162 -9 -27 -28 -62 -42 -78
-27 -33 -32 -68 -13 -102 8 -13 13 -59 13 -112 0 -66 5 -99 18 -124 17 -35 22
-77 11 -105 -4 -12 -20 -16 -56 -16 -27 0 -59 -5 -70 -11 -26 -14 -32 -5 -48
75 -59 310 -275 765 -487 1029 -42 53 -69 75 -121 101 -133 67 -291 97 -404
76z m237 -181 c102 -26 120 -38 182 -122 240 -325 411 -669 467 -939 22 -107
21 -148 -3 -148 -10 0 -32 -3 -48 -6 -30 -6 -31 -4 -91 110 -107 204 -248 401
-376 525 l-56 55 103 -155 c136 -206 266 -463 245 -484 -3 -4 -33 8 -67 24
-61 31 -61 32 -117 142 -100 201 -325 561 -553 886 l-71 101 68 11 c37 6 78
13 92 15 36 6 178 -4 225 -15z m1410 -453 c79 -37 115 -88 115 -161 0 -32 -2
-34 -46 -41 -137 -20 -382 35 -392 88 -5 26 76 106 123 123 62 22 142 19 200
-9z m35 -268 c31 -15 71 -44 90 -64 l35 -36 -80 7 c-149 13 -428 76 -411 93
16 16 131 31 216 29 80 -2 104 -7 150 -29z m-456 -227 c10 -42 -5 -35 -28 13
-17 36 -21 94 -9 136 6 20 10 10 19 -45 6 -38 14 -85 18 -104z m296 84 c37 6
40 5 41 -17 1 -22 1 -22 11 4 8 24 13 26 29 18 15 -9 19 -22 19 -67 l0 -56
-57 6 c-89 9 -127 24 -172 67 -33 32 -41 47 -41 75 l0 36 65 -36 c56 -32 71
-36 105 -30z m139 -46 c14 -17 21 -19 43 -10 33 13 42 2 33 -40 -6 -28 -9 -30
-48 -27 l-42 3 -5 48 c-3 26 -4 47 -2 47 2 0 11 -9 21 -21z m-278 -49 c10 -6
19 -21 19 -33 1 -20 2 -20 11 -4 5 9 19 17 31 17 18 0 20 -4 15 -37 -9 -52
-19 -59 -64 -42 -36 14 -38 17 -41 62 -3 50 -1 53 29 37z m145 -55 c19 -29 58
-33 91 -10 28 19 36 6 27 -41 l-7 -37 -75 6 c-41 3 -79 10 -84 15 -11 11 8 92
22 92 5 0 17 -11 26 -25z m194 -12 c0 -10 -32 -43 -42 -43 -4 0 -8 11 -8 25 0
20 5 25 25 25 14 0 25 -3 25 -7z m-297 -70 c9 -5 -24 -63 -35 -63 -4 0 -8 18
-8 40 0 39 6 43 43 23z m69 -30 c28 -26 28 -27 63 -10 41 19 45 20 63 8 11 -7
10 -15 -4 -47 -12 -28 -18 -34 -21 -21 -5 21 -12 21 -37 2 -28 -21 -56 -19
-83 7 -20 18 -23 19 -23 5 0 -18 -25 -23 -34 -8 -5 8 34 91 43 91 3 0 18 -12
33 -27z m-250 -28 c15 -33 -2 -71 -52 -120 -50 -48 -63 -41 -15 8 43 44 50 82
8 43 -30 -28 -30 -28 -62 27 l-23 37 34 15 c53 23 96 19 110 -10z m165 -148
l52 -55 -42 -43 -41 -44 -28 55 c-15 31 -44 75 -64 98 -34 40 -35 45 -24 72
l12 29 42 -28 c22 -16 64 -53 93 -84z m-315 66 c22 -20 24 -85 3 -106 -7 -8
-55 -40 -104 -72 l-91 -57 -142 28 c-128 24 -146 30 -170 57 -31 33 -37 77
-13 97 13 11 42 9 159 -12 l144 -25 88 53 c49 29 93 53 98 54 5 0 18 -7 28
-17z m569 -87 c31 -69 27 -83 -28 -88 -27 -3 -49 -3 -51 -2 -2 1 3 16 12 32 8
16 18 48 22 71 8 48 19 44 45 -13z m-379 -13 c17 -26 42 -71 54 -101 12 -29
24 -54 28 -55 3 -1 30 17 60 41 30 23 57 42 59 42 3 0 8 -12 11 -27 37 -151
48 -183 64 -171 23 20 52 89 52 127 0 33 0 34 38 28 51 -8 157 -119 203 -213
l34 -69 -2 -154 c-1 -85 -5 -156 -8 -159 -2 -3 -15 6 -27 19 -27 29 -78 67
-133 99 l-40 24 45 -54 c93 -112 137 -185 158 -263 11 -41 8 -45 -20 -20 -26
23 -29 14 -13 -42 8 -26 15 -60 15 -74 0 -26 -1 -26 -27 9 -31 41 -119 127
-143 140 -15 8 -14 1 6 -48 21 -53 27 -95 25 -166 -1 -25 -8 -18 -59 60 -58
89 -181 239 -189 231 -2 -3 6 -29 18 -58 52 -132 64 -224 33 -250 -20 -16 -26
-9 -90 109 -25 46 -48 82 -50 80 -2 -2 4 -40 13 -84 13 -70 14 -85 2 -110 -22
-45 -42 -41 -79 16 -18 28 -35 49 -37 46 -3 -3 0 -28 6 -56 18 -82 15 -88 -20
-54 -17 16 -41 49 -54 74 -26 53 -82 222 -91 278 -6 36 -4 40 20 46 37 9 96
65 116 109 l17 38 -43 100 c-36 82 -42 102 -32 118 9 14 7 52 -5 167 -10 82
-20 165 -23 184 -5 32 -3 37 20 48 15 6 29 19 32 27 10 24 21 18 56 -32z
m-158 -69 c22 -8 21 -67 -1 -86 -10 -8 -54 -34 -97 -58 l-80 -44 -134 17
c-140 17 -174 29 -194 72 -8 19 -8 28 2 40 16 20 23 19 166 -7 l121 -21 84 46
c84 46 103 52 133 41z m39 -145 c18 -29 -17 -66 -101 -108 l-77 -39 -115 5
c-130 5 -162 14 -181 49 -11 21 -10 27 3 40 14 14 27 14 142 1 l126 -16 77 45
c81 46 109 51 126 23z m21 -115 c10 -27 -12 -52 -82 -93 l-67 -39 -95 5 c-99
6 -130 19 -130 53 0 24 35 31 135 29 77 -2 87 1 137 29 59 35 93 40 102 16z
m-66 -149 c-41 -38 -81 -45 -114 -20 -18 13 -16 14 21 15 22 0 56 8 75 19 53
28 59 24 18 -14z m-35 -112 c25 -36 35 -59 28 -66 -14 -14 -29 -1 -52 44 -52
103 -39 115 24 22z m151 -56 c-3 -8 -19 -24 -36 -37 -23 -17 -38 -21 -66 -16
-56 9 -64 26 -11 26 26 0 56 8 74 19 36 24 46 25 39 8z"/>
<path d="M1465 2599 c-128 -17 -364 -90 -373 -117 -1 -5 14 -38 34 -73 101
-172 209 -442 259 -647 22 -87 31 -112 42 -108 8 4 32 6 54 6 35 0 39 3 39 25
0 15 -8 40 -17 58 -13 23 -18 57 -18 122 0 50 -6 100 -13 112 -22 39 -15 89
18 126 17 19 30 40 30 46 0 29 53 112 95 149 73 64 213 101 313 82 102 -19
164 -50 227 -114 66 -67 95 -130 95 -206 0 -36 7 -56 35 -94 19 -27 35 -58 35
-69 0 -20 -59 -85 -94 -104 -19 -10 -19 -12 -2 -48 15 -32 16 -43 6 -88 -16
-68 -56 -166 -77 -189 -9 -10 -29 -18 -46 -18 -29 0 -29 -1 -23 -38 4 -31 21
-55 80 -114 88 -89 147 -200 171 -320 18 -91 19 -135 4 -227 -9 -59 -7 -79 11
-151 12 -46 27 -122 34 -169 l12 -85 105 105 c263 261 391 585 375 949 -14
329 -137 612 -368 842 -274 272 -662 405 -1043 357z"/>
<path d="M544 1989 c-73 -116 -134 -292 -159 -459 -76 -499 167 -1007 605
-1266 78 -46 216 -107 230 -102 4 2 -32 103 -80 225 l-87 223 -65 65 c-80 79
-134 158 -167 245 -20 53 -25 83 -25 165 0 86 3 109 27 166 19 46 27 83 27
125 0 41 6 71 21 99 l21 39 -30 25 c-17 15 -58 80 -96 156 -60 119 -167 308
-186 329 -5 4 -21 -11 -36 -35z"/>
</g>
</svg>
